<svg width="244" height="80" viewBox="0 0 244 80" fill="none" xmlns="http://www.w3.org/2000/svg">
<g clip-path="url(#clip0_8_172)">
<rect width="244" height="80" fill="white"/>
<g opacity="0.37" filter="url(#filter0_f_8_172)">
<path d="M121.416 68.7794C94.8171 68.2664 71.7424 59.9862 50.4298 47.2361C41.4517 41.8136 33.0609 35.7317 25.2575 29.0635C22.4046 26.6454 20.7265 23.7876 21.6494 20.197C23.4954 13.2358 32.6414 11.1108 39.1862 16.3867C45.8988 21.8091 52.9471 26.7187 60.7505 30.8221C106.145 54.5637 164.964 48.6283 203.058 16.6065C203.897 15.947 204.652 15.2142 205.492 14.5548C210.19 11.1108 215.896 11.184 219.84 14.7013C223.7 18.2186 223.532 23.3479 219.252 27.1583C207.505 37.7834 194.416 46.7964 179.732 54.1241C161.524 63.2103 142.057 68.4863 121.416 68.7794Z" fill="#ED1944"/>
</g>
<path d="M121.303 78.5221C89.5793 77.8216 62.0584 66.513 36.6392 49.0998C25.9311 41.6942 15.9235 33.3879 6.61641 24.281C3.21384 20.9785 1.21232 17.0756 2.31315 12.1719C4.51482 2.66465 15.4231 -0.23755 23.229 6.96791C31.2351 14.3735 39.6414 21.0786 48.9485 26.6829C103.09 59.1074 173.243 51.0013 218.677 7.26814C219.678 6.36746 220.579 5.3667 221.579 4.46601C227.184 -0.23755 233.989 -0.137473 238.692 4.66617C243.296 9.46981 243.096 16.4751 237.992 21.6791C223.981 36.1901 208.369 48.4994 190.856 58.507C169.14 70.9164 152.365 78.5221 121.303 78.5221Z" fill="#ED1944"/>
</g>
<defs>
<filter id="filter0_f_8_172" x="7.3952" y="-1.98309" width="229.21" height="84.7625" filterUnits="userSpaceOnUse" color-interpolation-filters="sRGB">
<feFlood flood-opacity="0" result="BackgroundImageFix"/>
<feBlend mode="normal" in="SourceGraphic" in2="BackgroundImageFix" result="shape"/>
<feGaussianBlur stdDeviation="7" result="effect1_foregroundBlur_8_172"/>
</filter>
<clipPath id="clip0_8_172">
<rect width="244" height="80" fill="white"/>
</clipPath>
</defs>
</svg>
