<svg width="206" height="100" viewBox="0 0 206 100" fill="none" xmlns="http://www.w3.org/2000/svg">
<rect width="206" height="100" fill="white"/>
<path d="M114.367 11.619C114.367 5.20202 119.569 0 125.986 0H126.47C132.887 0 138.089 5.20203 138.089 11.619V51.8016C138.089 60.3576 145.025 67.2937 153.581 67.2937H192.816C199.233 67.2937 204.435 72.4957 204.435 78.9127V79.881C204.435 86.298 199.233 91.5 192.816 91.5H149.224C129.973 91.5 114.367 75.8939 114.367 56.6429V11.619Z" fill="#ED1944"/>
<path d="M87.992 0C94.409 0 99.611 5.20203 99.611 11.619V12.1032C99.611 18.5202 94.409 23.7222 87.992 23.7222H46.236C34.2709 23.7222 24.5713 33.4218 24.5713 45.3869C24.5713 57.352 34.2709 67.0516 46.236 67.0516H50.8352C57.1909 67.0516 62.3433 72.2039 62.3433 78.5596C62.3433 84.9153 57.1909 90.0677 50.8352 90.0677H43.5974C19.7208 90.0677 0.36496 70.7118 0.36496 46.8352C0.36496 20.9688 21.3338 0 47.2001 0L87.992 0Z" fill="#ED1944"/>
<path d="M88.7181 56.6429C94.7341 56.6429 99.611 51.766 99.611 45.75C99.611 39.734 94.7341 34.8571 88.7181 34.8571H64.2696C58.2536 34.8571 53.3767 39.734 53.3767 45.75C53.3767 51.766 58.2536 56.6429 64.2696 56.6429H88.7181Z" fill="#ED1944"/>
<path d="M194.742 26.405C200.758 26.405 205.635 31.2819 205.635 37.2978C205.635 43.3138 200.758 48.1907 194.742 48.1907H170.294C164.278 48.1907 159.401 43.3138 159.401 37.2978C159.401 31.2819 164.278 26.405 170.294 26.405H194.742Z" fill="#ED1944"/>
<path d="M88.0019 83.0478C94.3576 83.0478 99.5099 77.8955 99.5099 71.5398C99.5099 65.1841 94.3576 60.0317 88.0019 60.0317C81.6462 60.0317 76.4939 65.1841 76.4939 71.5398C76.4939 77.8955 81.6462 83.0478 88.0019 83.0478Z" fill="#ED1944"/>
<path d="M194.026 0C200.382 0 205.534 5.15232 205.534 11.508C205.534 17.8637 200.382 23.0161 194.026 23.0161C187.67 23.0161 182.518 17.8637 182.518 11.508C182.518 5.15232 187.67 0 194.026 0Z" fill="#ED1944"/>
</svg>
